<svg width="50" height="50" viewBox="0 0 50 50" fill="none" xmlns="http://www.w3.org/2000/svg">
<circle cx="25" cy="25" r="16" fill="#FFBE31"/>
<path fill-rule="evenodd" clip-rule="evenodd" d="M28.3281 9.34662C21.0889 10.8782 15.6562 17.3047 15.6562 25C15.6562 32.6953 21.0889 39.1218 28.3281 40.6534C27.2545 40.8805 26.1412 41 25 41C16.1634 41 9 33.8366 9 25C9 16.1634 16.1634 9 25 9C26.1412 9 27.2545 9.11948 28.3281 9.34662Z" fill="#EDAC20"/>
<line x1="25.5" y1="5.5" x2="25.5" y2="0.5" stroke="#FFD347" stroke-linecap="round"/>
<line x1="15.1178" y1="8.01328" x2="12.6178" y2="3.68315" stroke="#FFD347" stroke-linecap="round"/>
<line x1="7.5123" y1="15.183" x2="3.18217" y2="12.683" stroke="#FFD347" stroke-linecap="round"/>
<line x1="45.7154" y1="37.183" x2="41.3853" y2="34.683" stroke="#FFD347" stroke-linecap="round"/>
<line x1="37.0162" y1="46.0133" x2="34.5162" y2="41.6832" stroke="#FFD347" stroke-linecap="round"/>
<line x1="25.5" y1="49.5" x2="25.5" y2="44.5" stroke="#FFD347" stroke-linecap="round"/>
<line x1="44.5" y1="25.5" x2="49.5" y2="25.5" stroke="#FFD347" stroke-linecap="round"/>
<line x1="0.5" y1="25.5" x2="5.5" y2="25.5" stroke="#FFD347" stroke-linecap="round"/>
<line x1="35.2154" y1="8.51328" x2="37.7154" y2="4.18315" stroke="#FFD347" stroke-linecap="round"/>
<line x1="13.2154" y1="46.5133" x2="15.7154" y2="42.1832" stroke="#FFD347" stroke-linecap="round"/>
<line x1="4.18301" y1="38.317" x2="8.51314" y2="35.817" stroke="#FFD347" stroke-linecap="round"/>
<line x1="42.183" y1="16.317" x2="46.5131" y2="13.817" stroke="#FFD347" stroke-linecap="round"/>
</svg>
