<svg width="560" height="77" viewBox="0 0 560 77" fill="none" xmlns="http://www.w3.org/2000/svg">
<path d="M146.088 76.5935C146.088 76.3698 145.954 76.2297 145.789 76.2821C145.624 76.3345 145.283 76.1241 145.031 75.8146C144.766 75.4882 144.357 75.2519 144.057 75.2519C143.648 75.2519 143.615 75.2052 143.899 75.029C144.176 74.8577 144.167 74.79 143.86 74.737C143.546 74.6826 143.559 74.606 143.924 74.3778C144.278 74.1567 144.296 74.0718 144.002 74.0208C143.789 73.984 143.615 73.8841 143.615 73.7989C143.615 73.7136 143.753 73.6875 143.921 73.7409C144.096 73.7966 144.148 73.7328 144.042 73.5913C143.941 73.4557 144.017 73.3447 144.211 73.3447C144.469 73.3447 144.475 73.2584 144.233 73.0268C143.968 72.7715 143.998 72.7089 144.389 72.7089C144.783 72.7089 144.802 72.668 144.489 72.4958C144.089 72.2756 143.311 72.4725 143.413 72.7685C143.439 72.845 143.298 72.9385 143.098 72.9763C142.86 73.0214 142.797 72.9245 142.915 72.6931C143.014 72.4996 142.968 72.3793 142.814 72.4258C142.659 72.4722 142.255 72.4576 141.915 72.3933C141.424 72.3006 141.568 72.2524 142.61 72.1608C143.43 72.0887 143.924 71.9607 143.924 71.8208C143.924 71.6973 144.195 71.5964 144.525 71.5964C144.855 71.5964 145.316 71.4567 145.549 71.2859C145.966 70.9799 147.541 70.5622 148.051 70.6222C148.195 70.6392 149.1 70.5511 150.061 70.4264C151.022 70.3018 152.678 70.1493 153.741 70.0877C154.804 70.0261 155.751 69.9112 155.846 69.8324C155.941 69.7536 156.323 69.6875 156.696 69.6855C157.068 69.6835 158.208 69.4706 159.228 69.2123C160.248 68.9539 161.318 68.741 161.606 68.739C161.893 68.737 162.215 68.6639 162.32 68.5765C162.425 68.4891 162.354 68.4176 162.162 68.4176C161.733 68.4176 161.888 67.7067 162.32 67.6913C162.49 67.6852 163.239 67.5905 163.984 67.4807C164.73 67.371 165.679 67.3251 166.094 67.3786C166.509 67.4321 167.29 67.4059 167.83 67.3203C168.37 67.2346 169.588 67.0865 170.537 66.991C173.141 66.7291 174.532 66.5102 174.532 66.3624C174.532 66.2092 158.672 66.3161 154.745 66.4958C152.676 66.5904 151.887 66.5646 151.035 66.3741C150.44 66.2411 149.883 66.1219 149.798 66.1093C149.713 66.0967 149.237 66 148.74 65.8945C148.243 65.789 147.617 65.7466 147.349 65.8003C147.081 65.854 142.966 65.9236 138.205 65.955C133.444 65.9863 128.922 66.0832 128.157 66.1703C127.392 66.2573 125.098 66.4116 123.061 66.5131C121.023 66.6146 119.09 66.7708 118.765 66.8604C118.44 66.9499 117.494 66.9895 116.663 66.9485C115.833 66.9075 115.078 66.9363 114.987 67.0126C114.895 67.0888 114.69 67.1101 114.532 67.0598C114.374 67.0095 114.244 67.0441 114.244 67.1367C114.244 67.2292 114.14 67.2908 114.012 67.2735C113.498 67.2035 110.843 67.4927 110.843 67.6186C110.843 67.7738 108.508 68.0316 107.625 67.974C107.3 67.9528 106.773 68.0797 106.454 68.256C106.134 68.4323 105.635 68.585 105.344 68.5953C105.053 68.6056 103.98 68.6295 102.96 68.6483C101.94 68.6672 100.548 68.7652 99.8681 68.8661C99.1879 68.967 98.1059 69.0898 97.4635 69.139C96.8211 69.1881 96.371 69.2911 96.4632 69.3678C96.751 69.6072 96.0639 69.6699 90.6925 69.8944C90.4071 69.9064 90.1984 69.9839 90.2288 70.0667C90.2591 70.1495 90.0057 70.2593 89.6656 70.3108C89.3255 70.3622 88.696 70.5271 88.2667 70.6773C87.7051 70.8737 86.5343 70.9789 84.093 71.0525C82.2267 71.1087 80.3782 71.1472 79.9852 71.1381C79.5921 71.129 78.8433 71.2351 78.321 71.3739C77.7817 71.5173 77.2891 71.5633 77.1807 71.4805C76.9145 71.2772 75.8261 71.082 76.0645 71.2803C76.3158 71.4893 76.015 71.4786 75.1918 71.2492C73.5304 70.7862 65.6649 71.1382 64.8444 71.7122C64.5903 71.8899 64.5625 72.0098 64.7671 72.0448C64.943 72.075 65.0869 72.163 65.0869 72.2404C65.0869 72.3177 64.8923 72.3427 64.6545 72.2957C64.4166 72.2488 64.1301 72.2868 64.0179 72.3802C63.7181 72.6296 65.5709 72.5934 66.5708 72.3304C67.03 72.2096 68.0317 72.0581 68.7969 71.9937C69.5621 71.9294 70.4316 71.8535 70.7292 71.8251C71.0268 71.7968 71.2703 71.8672 71.2703 71.9817C71.2703 72.129 71.6547 72.1744 72.5842 72.137C73.5999 72.0961 73.7739 72.1211 73.3506 72.2473C73.0495 72.3371 72.8727 72.4685 72.9578 72.5393C73.1413 72.6919 71.4128 72.8454 68.0663 72.9737C66.1874 73.0457 65.5741 73.0172 65.3659 72.8481C65.1704 72.6895 65.0951 72.684 65.0917 72.8281C65.0847 73.1207 63.2264 73.0735 62.5607 72.7638C62.2497 72.6191 61.9953 72.5684 61.9953 72.6511C61.9953 72.7423 60.9918 72.7585 59.4447 72.6922C58.0418 72.6321 55.8506 72.5435 54.5753 72.4953C53.3 72.4472 51.7996 72.3246 51.241 72.223C50.6825 72.1214 49.8792 72.0723 49.4559 72.1139C49.0327 72.1554 48.5986 72.1164 48.4914 72.0273C48.3715 71.9276 48.4524 71.9146 48.7011 71.9937C48.9529 72.0737 49.0308 72.0599 48.9073 71.9571C48.6745 71.7635 47.2 71.588 45.4549 71.5464C44.4255 71.5218 44.2126 71.4596 44.1847 71.1754C44.1546 70.8701 44.3679 70.821 46.1942 70.7121C47.318 70.6452 48.5852 70.6059 49.0103 70.6248L49.7832 70.6592L48.9629 70.4299C47.5404 70.0324 46.1533 69.8647 43.4453 69.7627C42 69.7083 39.9131 69.547 38.8078 69.4042C36.2657 69.0758 27.4449 69.0507 27.0602 69.3707C26.9278 69.4808 26.6559 69.5189 26.4558 69.4553C25.9393 69.2912 20.2499 69.236 20.4434 69.3969C20.6244 69.5475 20.5783 69.5501 16.534 69.6132C13.6795 69.6577 12.4746 69.712 8.20042 69.9887C6.25151 70.1149 5.11204 70.0427 3.99815 69.7222C3.53167 69.588 3.63221 69.5117 4.75562 69.1471C5.66174 68.853 6.76873 68.68 8.43965 68.5715C11.2912 68.3861 14.0119 68.1527 15.972 67.9251C17.1445 67.789 17.3784 67.7049 17.2555 67.4634C17.1673 67.29 16.9264 67.2034 16.672 67.2535C16.4337 67.3006 16.2387 67.2598 16.2387 67.1631C16.2387 67.0663 16.4822 66.986 16.7798 66.9847C17.2421 66.9827 17.2534 66.9599 16.8571 66.8282C16.5638 66.7308 16.5318 66.6732 16.7701 66.6717C16.9779 66.6702 17.0667 66.562 16.9682 66.43C16.8439 66.2635 17.1524 66.1078 17.9827 65.9181L19.1758 65.6455L16.1551 65.5497C14.4937 65.497 12.3024 65.4611 11.2857 65.47C10.269 65.4789 9.43709 65.4772 9.43709 65.4662C9.43709 65.4553 9.71533 65.2814 10.0554 65.0798C10.3955 64.8783 10.6737 64.7617 10.6737 64.8208C10.6737 64.8799 10.987 64.8228 11.37 64.6937C11.7529 64.5647 13.0975 64.3769 14.3581 64.2764C15.6187 64.1758 17.2011 63.9936 17.8745 63.8715C18.548 63.7493 19.6032 63.6469 20.2195 63.6437C21.9412 63.635 26.2783 63.0553 25.0242 63.0015C24.8683 62.9948 24.4625 62.9564 24.1225 62.9162C23.7824 62.876 23.3343 62.8239 23.1266 62.8005C22.4193 62.7208 22.3741 62.5661 23.0271 62.4595C23.3854 62.4011 24.0423 62.18 24.4867 61.9682C24.9312 61.7565 25.6053 61.5832 25.9848 61.5832C26.3642 61.5832 26.8334 61.4849 27.0274 61.3647C27.3172 61.1852 27.0623 61.1276 25.5967 61.0418C24.6158 60.9844 23.3959 60.9027 22.8858 60.8604C21.6722 60.7597 16.8429 60.7742 16.5112 60.8796C16.0638 61.0218 12.5287 61.0889 12.5287 60.9552C12.5287 60.8849 12.7374 60.7384 12.9925 60.6296C13.2476 60.5207 13.4562 60.357 13.4562 60.2657C13.4562 60.1745 13.3647 60.1468 13.2528 60.2043C13.1409 60.2619 12.8627 60.2293 12.6345 60.1319C12.4047 60.0339 12.2196 60.0227 12.2196 60.1068C12.2196 60.1904 12.0109 60.2587 11.7558 60.2587C11.0133 60.2587 11.217 60.0885 12.2373 59.8563C13.3848 59.5952 13.2205 59.4857 11.3706 59.2786C9.68314 59.0897 9.36146 58.7936 10.5713 58.5429C11.8234 58.2834 17.7061 57.9467 21.0689 57.942C22.6451 57.9397 24.3038 57.8903 24.7549 57.8321L25.5751 57.7263L24.6942 57.3559C24.2097 57.1521 23.578 56.9828 23.2905 56.9797C22.5577 56.9717 22.3349 56.7189 22.728 56.3413C23.1431 55.9426 25.8324 55.2257 26.9129 55.2257C27.3685 55.2257 27.6319 55.1571 27.5233 55.0667C27.4182 54.9793 27.0771 54.9078 26.7652 54.9078C26.2414 54.9078 25.659 54.511 25.7738 54.2323C25.8904 53.949 20.9852 54.2658 20.5747 54.5681C20.2611 54.799 12.3664 55.4023 11.5903 55.2547L10.8512 55.1141L11.5702 54.9163C11.9656 54.8075 14.5342 54.5261 17.2783 54.2909C22.2996 53.8606 23.5216 53.5568 20.2313 53.5568C19.2203 53.5568 18.2902 53.466 17.9879 53.3378C17.5584 53.1557 16.9638 53.1507 14.459 53.3079C9.8533 53.5971 7.17661 53.7957 6.54888 53.8949C6.133 53.9606 6.00793 53.9135 6.08513 53.7202C6.19765 53.4385 7.15416 53.1081 8.6537 52.8327C9.94442 52.5958 9.1421 52.3868 7.49177 52.5302C6.77626 52.5923 5.56478 52.6935 4.7996 52.7551L3.40835 52.8671L4.56772 52.2959C5.20538 51.9818 5.7271 51.6992 5.7271 51.6679C5.7271 51.6367 4.86438 51.5609 3.80995 51.4996C1.31687 51.3546 -0.0171048 50.9953 0.000165601 50.4735C0.0092376 50.1983 2.00932 49.8291 3.87034 49.7591C4.6365 49.7303 6.37634 49.593 7.73667 49.4541C9.097 49.3153 11.184 49.1694 12.3745 49.1301C13.565 49.0908 15.3737 48.9833 16.3937 48.8912C22.7287 48.3193 24.1545 48.1785 24.4276 48.0981C24.5954 48.0486 24.1084 47.93 23.3455 47.8345C22.5777 47.7384 21.9583 47.5677 21.9583 47.4521C21.9583 47.1847 25.0744 46.6037 27.9024 46.3439C29.2781 46.2175 30.296 46.0295 30.6293 45.8401C30.9275 45.6707 31.9625 45.457 32.9865 45.3534C35.3096 45.1185 35.2469 44.8956 32.7226 44.4161C32.1814 44.3133 31.8013 44.1465 31.8779 44.0453C32.0523 43.8152 33.4853 43.4642 34.2502 43.4642C34.5665 43.4642 34.7392 43.3927 34.6341 43.3052C34.529 43.2178 33.4078 43.1463 32.1425 43.1463C30.0579 43.1463 29.2207 42.9838 30.2285 42.7748C31.129 42.588 26.617 42.6891 24.3885 42.9057C21.6133 43.1753 20.1033 43.0625 20.1033 42.5853C20.1033 42.3653 20.9109 42.0765 23.138 41.5C25.2359 40.9569 26.0471 40.6727 25.7659 40.5794C25.2317 40.4021 25.7589 40.2208 27.8325 39.8687C30.7593 39.3717 33.0811 38.5387 32.7763 38.0949C32.5681 37.7918 33.7089 37.6265 38.4219 37.2768C40.7645 37.103 43.1106 36.8506 43.6354 36.716C44.1602 36.5814 45.2712 36.4293 46.1043 36.378C48.4015 36.2364 52.7972 35.6648 53.4847 35.4181C53.8201 35.2978 54.5157 35.1944 55.0305 35.1882C55.5453 35.1821 56.2448 35.1156 56.5849 35.0404C57.0772 34.9317 56.9513 34.8991 55.9665 34.8804C53.3313 34.8305 51.933 34.697 51.5836 34.4618C51.3451 34.3012 50.9725 34.2519 50.5016 34.3184C49.8834 34.4057 49.8595 34.3953 50.3298 34.2438C50.6305 34.147 51.1174 34.0882 51.4119 34.1131C51.7064 34.138 52.1346 34.0981 52.3633 34.0244C52.6094 33.9451 53.0906 33.976 53.5418 34.1002C54.136 34.2637 54.4334 34.2685 54.8892 34.1222C55.2593 34.0034 55.5429 33.9916 55.6613 34.0901C55.7642 34.1757 56.6402 34.2483 57.6079 34.2514C58.5756 34.2545 59.7152 34.3592 60.1403 34.4842C61.0664 34.7563 61.3769 34.7763 61.3769 34.5636C61.3769 34.4762 61.16 34.4047 60.895 34.4047C60.6299 34.4047 60.4892 34.3413 60.5823 34.2638C60.6755 34.1864 60.4603 34.0838 60.1042 34.0359C59.7482 33.9881 59.5173 33.8548 59.5911 33.7397C59.7275 33.5274 61.1123 33.403 65.3961 33.2183C69.2662 33.0514 70.3428 32.9616 70.3428 32.8056C70.3428 32.7235 70.1341 32.6564 69.879 32.6564C69.6214 32.6564 69.4153 32.5151 69.4153 32.3385C69.4153 32.1054 69.6214 32.0206 70.1882 32.0206C71.0775 32.0206 71.2292 31.7759 70.4082 31.6655C70.1041 31.6246 68.539 31.6294 66.9301 31.676C62.2443 31.812 60.3698 31.7667 59.3895 31.494C58.8916 31.3555 58.3951 31.2705 58.2861 31.3051C58.1772 31.3397 58.1455 31.1667 58.2158 30.9206C58.369 30.3837 57.9342 30.2999 54.7598 30.255C52.8599 30.2281 52.7125 30.204 53.3727 30.0281C54.459 29.7387 58.4434 29.3234 60.8195 29.2519C62.0338 29.2153 63.1808 29.0848 63.5935 28.9362C64.4718 28.62 65.001 28.616 65.5949 28.9213C65.862 29.0586 66.6064 29.1583 67.3505 29.1563C69.6419 29.1502 78.1913 28.7032 79.3521 28.5288C80.4361 28.3659 80.469 28.3396 80.2403 27.8183C80.0962 27.4898 80.1286 27.2123 80.3227 27.1125C80.5432 26.9992 80.5337 26.8805 80.2922 26.7309C79.5536 26.2734 80.4931 26.1787 85.005 26.2558C88.5107 26.3157 89.6043 26.2829 90.3156 26.0964C91.0683 25.8991 94.4615 25.6269 96.7765 25.5782C97.1165 25.571 98.0904 25.5012 98.9406 25.4231L100.486 25.281L99.0952 25.1654C98.33 25.1018 96.0345 25.0862 93.994 25.1308C91.9535 25.1754 89.0318 25.2024 87.5015 25.1907C85.9711 25.1791 82.9799 25.2861 80.8544 25.4285C76.6488 25.7102 72.3116 25.9073 70.4445 25.9015C69.7934 25.8995 69.1733 25.9603 69.0665 26.0366C68.9597 26.1129 68.438 26.1845 67.9071 26.1957C67.3763 26.2069 66.9419 26.2752 66.9419 26.3476C66.9419 26.42 66.6289 26.4339 66.2463 26.3786C65.7018 26.2998 65.6514 26.3142 66.0144 26.4449C66.4142 26.5888 66.4036 26.6122 65.9372 26.6143C65.6396 26.6157 65.3961 26.6964 65.3961 26.7939C65.3961 26.9027 65.1021 26.8721 64.6341 26.7144C63.7878 26.4294 63.4167 26.3846 63.674 26.5986C63.7671 26.6761 63.5667 26.7767 63.2285 26.8221C62.8766 26.8695 62.6136 26.8262 62.6135 26.721C62.6135 26.6146 62.1254 26.5372 61.4542 26.5372C60.7173 26.5372 60.3213 26.6068 60.3672 26.7283C60.4171 26.8598 60.0839 26.896 59.2986 26.8443C58.0116 26.7596 56.7418 26.3892 56.7347 26.0965C56.7314 25.9713 56.6226 25.9869 56.4303 26.1399C56.1977 26.3249 56.1296 26.2781 56.1259 25.9307C56.1198 25.3575 56.6292 24.8684 57.2323 24.8684C57.4914 24.8684 57.6175 24.7968 57.5124 24.7094C57.4073 24.622 57.573 24.545 57.8806 24.5383C58.8994 24.5162 59.5464 24.4199 60.2353 24.1878C60.853 23.9798 62.3044 24.0598 62.3044 24.302C62.3044 24.3458 62.118 24.3448 61.8902 24.2997C61.6624 24.2547 61.2798 24.3422 61.04 24.4941C60.6643 24.7321 60.6647 24.7515 61.0434 24.6342C61.381 24.5296 61.4321 24.5655 61.2648 24.7897C61.1346 24.964 61.2067 25.1332 61.4441 25.2106C62.0356 25.4036 62.5337 25.3673 61.9956 25.1705C61.6467 25.0428 61.8258 25.0218 62.7193 25.0858C63.376 25.1328 64.1593 25.0897 64.4719 24.9893C64.8997 24.8519 65.1471 24.8548 65.4898 25.001C65.8549 25.1568 65.989 25.1395 66.1824 24.912C66.3142 24.7568 66.4 24.5761 66.373 24.5106C66.346 24.445 66.521 24.3914 66.7619 24.3914C67.0028 24.3914 67.253 24.3096 67.3178 24.2096C67.3826 24.1096 67.8438 24.0054 68.3427 23.9781C68.8415 23.9508 69.4051 23.8191 69.5951 23.6855C69.7851 23.552 70.0533 23.4952 70.1911 23.5594C70.3289 23.6236 70.3543 23.551 70.2475 23.398C70.0085 23.0556 70.5998 23.0236 70.8548 23.3651C71.0168 23.5822 71.1046 23.5794 71.618 23.3405C72.1661 23.0855 72.1984 23.0873 72.2028 23.3733C72.2068 23.627 72.2561 23.6375 72.5073 23.4377C72.9541 23.0823 72.8903 23.0049 72.0628 22.8981C71.538 22.8304 71.3241 22.6993 71.3582 22.4663C71.4127 22.095 72.4896 21.8175 73.7304 21.855C74.887 21.89 75.9081 21.6854 75.9081 21.4188C75.9081 21.2471 76.2154 21.1968 77.0675 21.2288C78.3135 21.2755 80.4098 21.0966 81.1639 20.8792C81.5384 20.7712 81.5087 20.7431 81.0093 20.7331C80.6693 20.7263 79.6954 20.6872 78.8452 20.6462C76.2162 20.5195 72.7193 20.5235 71.4578 20.6546C70.5918 20.7447 70.3142 20.7295 70.4691 20.6007C70.6021 20.4901 70.5185 20.4543 70.2503 20.5072C69.996 20.5574 69.5856 20.4119 69.2594 20.1559C68.861 19.8434 68.8086 19.7008 69.0754 19.655C69.3259 19.6121 69.2654 19.5173 68.891 19.3663C68.3829 19.1614 68.4156 19.1489 69.261 19.2244C69.7711 19.27 70.0146 19.2651 69.8021 19.2136C69.0191 19.0238 69.4503 18.8285 70.6522 18.8285C71.4329 18.8285 71.8906 18.9018 71.8936 19.0272C71.8969 19.1734 71.9685 19.1689 72.1641 19.0102C72.3311 18.8747 72.5022 18.8547 72.6244 18.9563C72.8319 19.129 73.2255 19.1155 74.1918 18.9029C74.5231 18.8299 75.2515 18.7655 75.8104 18.7597C77.0918 18.7463 77.5078 18.3517 76.2406 18.3517C75.7393 18.3517 75.2787 18.2484 75.1779 18.1133C75.0578 17.9524 75.1929 17.8749 75.5932 17.8749C75.9195 17.8749 76.2977 17.7855 76.4337 17.6762C76.7882 17.3913 78.0482 17.0538 78.3726 17.1569C78.5239 17.205 78.7352 17.1717 78.842 17.0828C78.9488 16.994 79.4201 16.9213 79.8893 16.9213C80.3585 16.9213 81.4981 16.8051 82.4217 16.6632C83.8795 16.4391 84.0104 16.3876 83.4149 16.2728C83.0376 16.2 80.4561 16.1502 77.6783 16.162C74.9004 16.174 72.4459 16.1258 72.2237 16.0553C71.9936 15.9822 71.7287 16.0027 71.6082 16.1029C71.3598 16.3095 61.749 16.4662 61.5101 16.2674C61.4261 16.1976 61.1415 16.183 60.8776 16.2351C60.5527 16.2992 60.5099 16.3654 60.7451 16.4401C60.9361 16.5008 60.6695 16.5504 60.1527 16.5504C59.6359 16.5504 59.2131 16.482 59.2131 16.3985C59.2131 16.3149 59.001 16.3371 58.7418 16.4476C58.4827 16.5582 58.1717 16.5978 58.0508 16.5357C57.9299 16.4735 58.1768 16.2874 58.5993 16.1221L59.3676 15.8214L58.5947 15.8978C57.9174 15.9647 57.8983 15.9555 58.4401 15.8231C59.3318 15.6053 60.7971 15.6279 61.6561 15.8726C62.4933 16.1111 63.5414 16.0325 63.5414 15.7312C63.5414 15.5924 64.1519 15.5301 65.551 15.526C66.8118 15.5224 67.5605 15.5853 67.5605 15.6948C67.5605 15.7909 67.7344 15.7523 67.947 15.609C68.2261 15.4209 69.0632 15.3202 70.9614 15.2466C72.4067 15.1905 74.4674 15.0437 75.5407 14.9203C76.6141 14.797 77.9357 14.6892 78.4778 14.6809C79.0199 14.6724 80.159 14.5679 81.0093 14.4486C82.4588 14.2451 82.2951 14.237 78.3813 14.3183C76.0858 14.366 73.9989 14.4061 73.7439 14.4076C73.4888 14.409 70.2889 14.5778 66.633 14.7827C62.9771 14.9877 58.9914 15.1772 57.7758 15.2039C56.5603 15.2306 55.6294 15.306 55.7072 15.3716C55.785 15.4372 55.2492 15.4911 54.5165 15.4914C53.7838 15.4914 51.9322 15.5957 50.4018 15.7223C47.7775 15.9395 41.6044 16.1634 42.4427 16.0111C42.6563 15.9722 42.7525 15.8751 42.6564 15.7951C42.5603 15.7152 42.8724 15.6463 43.3501 15.6421C43.8277 15.638 44.7054 15.4988 45.3006 15.3329C45.8957 15.167 46.6609 14.9646 47.001 14.8831C48.1188 14.6151 66.3531 13.0643 70.6522 12.8716C71.9275 12.8144 75.6143 12.626 78.8451 12.4528C82.0759 12.2797 86.3401 12.0686 88.3212 11.9838C90.3022 11.8989 92.5925 11.726 93.4107 11.5994C94.4854 11.4331 94.9574 11.4184 95.1114 11.5465C95.3067 11.709 98.5593 11.6645 102.496 11.4456C103.091 11.4125 104.97 11.3407 106.67 11.2861C109.721 11.1881 114.37 10.8584 116.972 10.5555C117.706 10.4699 118.438 10.4413 118.597 10.4919C118.756 10.5425 120.91 10.4262 123.384 10.2336C127.044 9.94858 128.013 9.91961 128.589 10.078C129.167 10.2373 129.909 10.2106 132.668 9.931C137.262 9.46561 143.256 8.8606 146.243 8.56083C147.604 8.4243 149.58 8.21116 150.635 8.08719C151.69 7.9632 153.012 7.86212 153.572 7.86254C154.132 7.86254 155.217 7.76033 155.982 7.63444C157.272 7.42227 159.912 7.18674 166.957 6.65539C170.577 6.38241 171.306 6.3194 174.996 5.96085C176.696 5.79561 179.479 5.54238 181.179 5.39809C182.879 5.25381 184.688 5.10029 185.198 5.05693C188.808 4.75024 189.495 4.75594 190.213 5.09855C190.601 5.28341 190.918 5.51586 190.918 5.61511C190.918 5.71435 191.022 5.78707 191.15 5.77673C191.277 5.76648 191.699 5.76648 192.088 5.77673C192.679 5.79245 192.744 5.84418 192.485 6.09252C192.107 6.45609 192.41 6.65219 192.976 6.41047C193.614 6.13849 193.468 6.38312 192.735 6.81675C192.35 7.04421 191.578 7.24815 190.867 7.3099C189.828 7.40008 189.71 7.44978 190.042 7.65569C190.541 7.96474 190.12 7.98391 209.931 6.75156C211.292 6.66694 213.726 6.56341 215.342 6.52149C216.957 6.47957 219.879 6.36999 221.834 6.27797C223.79 6.18597 226.364 6.08235 227.554 6.04771C228.744 6.01309 230.268 5.91066 230.941 5.82009C231.613 5.72953 234.281 5.65102 236.869 5.64565C239.457 5.6403 241.759 5.60401 241.984 5.56504C242.54 5.46891 249.785 5.2738 251.509 5.30853C252.271 5.32393 253.108 5.43542 253.368 5.5564C253.95 5.82748 255.434 5.85465 262.335 5.72064C265.507 5.65901 268.42 5.51892 269.377 5.38198C270.625 5.20328 272.695 5.15436 278.188 5.17379C282.137 5.18784 288.707 5.1452 292.788 5.07926C301.058 4.94559 300.616 4.94408 309.174 5.13506C314.714 5.2587 317.911 5.26383 322.777 5.15691C323.627 5.13822 324.079 5.09022 323.782 5.05024C323.484 5.01028 323.241 4.90279 323.241 4.81142C323.241 4.70181 324.109 4.67678 325.791 4.73786C327.194 4.78879 331.403 4.90293 335.144 4.99152C338.885 5.08012 343.684 5.22598 345.81 5.31565C354.349 5.67594 357.606 5.80292 362.041 5.94846C373.133 6.31251 378.98 6.45757 385.074 6.51988C387.88 6.54859 391.358 6.6208 392.803 6.68035C394.248 6.7399 396.405 6.78222 397.595 6.77437C398.785 6.76665 401.151 6.83045 402.851 6.91643C404.551 7.00242 410.058 7.10426 415.089 7.14276C420.119 7.18127 424.849 7.28248 425.6 7.36768C426.351 7.45288 428.059 7.56133 429.395 7.60868C430.731 7.65602 432.261 7.73155 432.796 7.77652C434.624 7.93029 437.478 8.03484 441.651 8.10092C445.327 8.15911 448.898 8.29877 454.172 8.59064C455.023 8.63766 456.205 8.6961 456.8 8.72049C457.396 8.7449 458.926 8.81075 460.201 8.86687C461.477 8.92298 463.633 9.01264 464.993 9.06613C466.353 9.11959 467.536 9.18538 467.621 9.21231C467.706 9.23926 468.567 9.30448 469.534 9.35735C470.501 9.41019 471.496 9.49364 471.745 9.54278C471.994 9.59191 473.429 9.65341 474.934 9.67946C479.066 9.75097 479.06 9.75053 479.06 10.0074C479.06 10.1386 479.208 10.2458 479.388 10.2458C479.568 10.2458 479.615 10.1622 479.492 10.0599C479.339 9.9331 479.44 9.90781 479.808 9.98042C480.105 10.039 480.654 10.0869 481.029 10.0869C481.49 10.0869 481.726 10.1902 481.758 10.4048C481.813 10.7847 481.646 10.803 481.026 10.4842C480.379 10.1516 479.655 10.1765 479.872 10.524C479.979 10.6951 479.946 10.7338 479.785 10.6245C479.607 10.5035 478.736 10.4807 477.051 10.5532C474.149 10.6778 471.959 10.6435 467.93 10.4103C466.315 10.3167 464.228 10.2018 463.293 10.1548C462.358 10.1078 461.43 10.042 461.232 10.0087C461.033 9.97531 460.79 10.0565 460.691 10.1891C460.558 10.3676 460.264 10.4022 459.559 10.3226C458.451 10.1975 457.74 10.15 454.791 10.0041C453.601 9.94519 452.543 9.87069 452.442 9.83854C452.225 9.77004 448.09 9.75878 442.424 9.81128C438.829 9.84456 436.295 9.75359 434.404 9.52339C433.338 9.39368 425.884 9.33756 425.884 9.45927C425.884 9.52185 426.823 9.62472 427.971 9.68788C429.118 9.75105 430.336 9.83093 430.676 9.86542C433.061 10.1073 439.45 10.3784 444.588 10.4558C445.779 10.4737 446.9 10.5368 447.079 10.596C447.378 10.6944 456.845 11.0739 457.353 11.0078C457.474 10.9921 458.617 11.0293 459.892 11.0904C461.864 11.185 466.899 11.3752 468.162 11.4029C468.619 11.4129 468.673 11.6181 468.254 11.7513C467.953 11.8469 465.622 11.8689 463.513 11.7962C462.869 11.7739 462.229 11.6616 462.091 11.5466C461.904 11.3909 461.373 11.3649 460.016 11.4451C459.012 11.5043 458.099 11.5812 457.985 11.616C457.871 11.6508 457.567 11.5707 457.309 11.4381C457.051 11.3055 456.766 11.2583 456.676 11.3331C456.502 11.4784 450.261 11.4165 448.453 11.2516C447.858 11.1973 446.809 11.1382 446.122 11.1202C445.435 11.1022 444.565 11.0028 444.189 10.8994C443.643 10.7492 443.506 10.754 443.506 10.9237C443.506 11.0486 443.093 11.1531 442.501 11.1776C440.057 11.279 436.635 11.2694 433.922 11.1535C431.971 11.0702 431.138 11.0806 431.44 11.1846C432.659 11.6041 430.372 11.811 426.811 11.6034C423.655 11.4194 423.09 11.4097 421.726 11.5161C421.022 11.5711 420.035 11.5593 419.532 11.4901C418.208 11.3077 411.326 10.9847 408.261 10.9612C406.816 10.95 404.729 10.892 403.624 10.8323C402.519 10.7725 400.293 10.6869 398.677 10.642C397.062 10.5972 393.236 10.4553 390.175 10.3268C387.114 10.1983 382.562 10.045 380.058 9.9863C375.979 9.89058 375.486 9.90696 375.309 10.1442C375.141 10.3698 374.603 10.4079 371.668 10.4021C369.774 10.3985 367.598 10.4534 366.833 10.5243L365.442 10.6532L367.761 10.8304C369.036 10.9279 370.566 11.0057 371.161 11.0033C371.757 11.0007 374.191 11.1097 376.572 11.2451C378.952 11.3804 383.474 11.571 386.62 11.6686C389.766 11.7662 392.649 11.8803 393.027 11.9221C393.405 11.964 396.536 12.0679 399.983 12.1529C406.18 12.3059 410.521 12.4307 413.826 12.5509C414.762 12.5849 417.97 12.6852 420.956 12.7737C423.942 12.8623 426.585 12.9666 426.83 13.0055C427.075 13.0444 427.553 13.1304 427.893 13.1965C428.233 13.2626 429.047 13.3365 429.7 13.3608C430.354 13.3851 431.05 13.5183 431.247 13.6569C431.532 13.8571 432.337 13.9174 435.16 13.95C437.115 13.9726 438.853 14.0351 439.023 14.0888C439.193 14.1426 440.376 14.2285 441.651 14.2798C447.748 14.5251 453.842 14.7242 456.646 14.7699C458.346 14.7976 461.963 14.9451 464.684 15.0978C467.405 15.2504 470.883 15.399 472.413 15.4281C483.005 15.6289 491.465 15.8818 495.91 16.1305C497.44 16.2161 500.123 16.3322 501.871 16.3884C503.619 16.4446 505.123 16.5518 505.213 16.6265C505.302 16.7012 504.916 16.7682 504.353 16.7753C503.79 16.7824 502.937 16.8028 502.457 16.8208C501.977 16.8387 501.524 16.803 501.45 16.7415C501.376 16.68 500.801 16.7027 500.173 16.7919C499.535 16.8824 498.137 16.9077 497.007 16.8491C495.893 16.7914 489.974 16.7162 483.852 16.682C477.731 16.6477 470.427 16.5736 467.621 16.5171C462.62 16.4165 461.203 16.4781 464.484 16.6534C465.394 16.702 466.206 16.7764 466.288 16.8187C466.508 16.932 465.378 17.2125 464.44 17.277C463.347 17.3523 463.003 17.5536 463.937 17.5709C464.348 17.5785 466.493 17.6513 468.703 17.7328C470.914 17.8142 475.261 17.9232 478.365 17.9748C483.466 18.0597 484.007 18.0954 484.007 18.3473C484.007 18.6969 485.252 18.7795 492.753 18.9282C495.777 18.9881 498.324 19.0975 498.413 19.1713C498.502 19.245 499.184 19.3054 499.929 19.3054C502.469 19.3054 501.757 19.7443 498.637 20.1018C497.756 20.2027 496.574 20.2721 496.009 20.2561C492.244 20.1488 493.231 20.4617 497.456 20.7144C499.156 20.8161 501.521 20.934 502.711 20.9763C503.902 21.0186 506.058 21.1246 507.504 21.2117C508.949 21.2988 511.871 21.4173 513.996 21.4749C516.614 21.5459 517.96 21.647 518.17 21.788C518.341 21.9034 519.444 22.0424 520.643 22.0998C521.833 22.1567 522.946 22.2906 523.117 22.3973C523.286 22.5041 524.442 22.6396 525.684 22.6986C526.925 22.7576 528.253 22.9109 528.635 23.0393C529.071 23.1864 530.408 23.2986 532.251 23.3426C536.223 23.4377 539.335 23.6168 539.508 23.7603C539.689 23.9111 536.982 24.1265 536.566 23.9944C536.396 23.9402 536.256 23.9636 536.256 24.0465C536.256 24.1293 536.743 24.2441 537.338 24.3015C538.513 24.4148 538.735 24.6125 537.879 24.7831C536.869 24.9844 538.283 25.3033 541.461 25.591C544.131 25.8327 545.818 26.1313 544.588 26.1446C543.432 26.157 545.217 26.4372 547.074 26.5349C548.177 26.5929 549.241 26.7094 549.438 26.7937C549.636 26.878 550.677 27.0198 551.753 27.1089C554.741 27.3563 554.709 27.555 551.66 27.6782C550.521 27.7242 549.48 27.8606 549.167 28.0047C548.728 28.2068 548.19 28.231 546.23 28.1369C542.243 27.9455 541.454 27.9827 540.856 28.3905C540.563 28.5901 540.384 28.8034 540.457 28.8645C540.531 28.9257 541.529 29.0258 542.674 29.0869C543.82 29.1481 544.897 29.2543 545.067 29.3229C545.237 29.3916 546.037 29.4983 546.845 29.5601C549.062 29.7297 548.607 29.9543 546.046 29.9543C544.799 29.9543 543.674 30.0079 543.545 30.0735C543.416 30.139 542.12 30.1927 540.663 30.1927C538.822 30.1927 537.975 30.2532 537.883 30.3914C537.792 30.5275 538.123 30.5903 538.935 30.5909C539.587 30.5912 540.608 30.6574 541.203 30.7376C541.798 30.8178 543.462 30.9286 544.902 30.9839C546.341 31.0393 547.676 31.1514 547.867 31.2332C548.059 31.315 548.297 31.3403 548.396 31.2894C548.495 31.2384 548.9 31.2562 549.295 31.3288C549.85 31.4307 549.521 31.4839 547.85 31.5621C545.878 31.6543 543.629 31.8863 542.439 32.1201C541.684 32.2685 542.858 32.4316 546.381 32.6677C548.124 32.7845 549.55 32.9225 549.55 32.9744C549.55 33.0262 550.455 33.039 551.56 33.0029C553.175 32.95 553.569 32.9827 553.569 33.1694C553.569 33.4575 552.591 33.9286 551.999 33.9253C551.636 33.9233 551.64 33.8963 552.023 33.7688C552.418 33.6377 552.405 33.6144 551.936 33.6123C551.633 33.6109 551.303 33.7209 551.201 33.8565C551.044 34.0667 550.485 34.0909 547.424 34.0201C543.587 33.9313 542.644 34.0365 543.351 34.4743C544.535 35.2077 549.362 35.9939 552.681 35.9939C554.686 35.9939 555.733 36.1867 555.733 36.5558C555.733 36.7406 555.239 36.7879 553.337 36.7849C552.019 36.7828 550.385 36.7057 549.705 36.6137C549.024 36.5216 545.82 36.4139 542.583 36.3743C536.859 36.3042 536.697 36.311 536.651 36.6218C536.606 36.9275 536.984 37.1476 537.647 37.2028C537.817 37.2169 539.151 37.3442 540.611 37.4856C545.39 37.9485 549.632 38.2305 553.975 38.3738C557.998 38.5065 559.37 38.6886 558.955 39.0344C558.86 39.1133 558.649 39.1357 558.487 39.084C558.324 39.0324 558.229 39.0849 558.276 39.2006C558.323 39.3171 558.121 39.4014 557.823 39.3894C557.528 39.3774 557.353 39.4232 557.434 39.4911C557.516 39.5591 557.111 39.6602 556.533 39.7159C555.286 39.8362 554.99 40.1227 555.629 40.5918C555.969 40.8417 556.006 40.9907 555.763 41.1412C555.364 41.3879 555.625 41.5568 556.403 41.5568C556.715 41.5568 556.97 41.5867 556.97 41.6233C556.97 41.6598 557.062 41.8135 557.175 41.9647C557.364 42.2173 557.156 42.231 554.624 42.1342C553.109 42.0763 551.347 41.9863 550.709 41.9344C549.787 41.8592 549.55 41.8905 549.55 42.0878C549.55 42.2242 549.326 42.4002 549.052 42.4791C548.344 42.6827 548.769 43.5985 549.656 43.7825C550.291 43.9141 550.293 43.9218 549.705 43.942C549.086 43.9632 549.086 43.9632 549.705 44.0998C550.308 44.2331 549.465 44.29 546.304 44.3297C544.985 44.3463 543.985 44.5602 543.985 44.8258C543.985 44.9677 543.665 45.0543 543.135 45.0556C542.667 45.0571 541.968 45.1014 541.582 45.1546C540.922 45.2454 540.913 45.2647 541.427 45.4653C541.729 45.5829 542.356 45.6814 542.821 45.6842C543.286 45.687 544.585 45.9395 545.707 46.2455C546.838 46.5541 548.196 46.8018 548.757 46.8018C550.631 46.8018 553.553 47.0041 553.409 47.1239C553.331 47.1892 553.503 47.2329 553.792 47.2209C554.082 47.2089 554.368 47.3224 554.428 47.473C554.569 47.8227 552.744 48.4256 551.802 48.3404C551.425 48.3063 551.067 48.3565 551.005 48.4518C550.859 48.6767 547.251 48.7402 545.808 48.5434C545.195 48.4598 542.03 48.372 538.774 48.3483C533.27 48.3083 531.647 48.3894 533.705 48.6018C534.173 48.65 535.181 48.7623 535.947 48.8513C536.712 48.9403 537.929 49.0162 538.652 49.02C539.374 49.0238 539.966 49.0985 539.966 49.1859C539.966 49.2733 540.184 49.3448 540.45 49.3448C540.716 49.3448 541.22 49.4234 541.569 49.5194C542.196 49.6921 542.195 49.6961 541.471 49.8817C540.203 50.2068 540.596 50.5135 542.727 50.8619C543.821 51.0406 544.781 51.291 544.86 51.4182C544.94 51.5453 545.128 51.6909 545.278 51.7416C545.751 51.9011 545.185 52.3915 544.65 52.2859C544.38 52.2326 544.244 52.2328 544.348 52.2865C544.452 52.3401 544.187 52.5643 543.758 52.7846C543.195 53.0745 542.613 53.1925 541.656 53.2116C540.928 53.2261 540.389 53.2847 540.458 53.3418C540.526 53.399 539.251 53.4107 537.624 53.3679C535.258 53.3056 534.561 53.3383 534.146 53.5309C533.571 53.7985 530.534 53.9088 528.951 53.7197C528.346 53.6475 527.904 53.6698 527.773 53.7792C527.657 53.8754 527.234 53.9541 526.833 53.9541C525.903 53.9541 525.126 54.1066 525.126 54.289C525.126 54.3671 525.328 54.4309 525.574 54.4309C525.821 54.4309 526.141 54.5394 526.285 54.6719C526.448 54.8214 527.656 55.0238 529.469 55.2052C533.041 55.5624 535.671 56.1087 535.422 56.4417C535.327 56.5697 535.05 56.6353 534.809 56.5876C534.567 56.5398 534.446 56.5654 534.541 56.6444C534.636 56.7234 534.349 57.0109 533.904 57.2833C533.307 57.6478 532.929 57.7517 532.472 57.6771C532.127 57.6209 531.928 57.6402 532.024 57.7204C532.12 57.8 531.714 57.8722 531.123 57.8808C530.531 57.8894 529.071 58.0195 527.877 58.1699L525.707 58.4433L526.398 58.8212C526.778 59.029 527.217 59.1991 527.374 59.1991C527.532 59.1991 528.138 59.3156 528.721 59.4579C529.739 59.7061 529.763 59.7319 529.312 60.0854C529.016 60.3177 528.958 60.4905 529.153 60.5528C529.324 60.6071 529.375 60.7257 529.266 60.8164C529.138 60.9228 528.972 60.9048 528.797 60.7657C528.622 60.6258 528.445 60.607 528.295 60.7122C528.167 60.8014 527.645 60.9779 527.135 61.1044L526.208 61.3343L527.186 61.3883C528.246 61.4468 528.812 61.8547 528.044 62.0062C527.785 62.0574 527.495 62.0597 527.402 62.0114C527.308 61.9631 526.768 62.0573 526.202 62.2207C525.636 62.3842 524.644 62.5689 523.997 62.6312C523.351 62.6935 522.635 62.8408 522.406 62.9585C521.864 63.2373 521.652 63.2312 518.779 62.8535C516.201 62.5145 515.474 62.5461 514.416 63.0432C513.82 63.3235 513.579 63.3373 511.963 63.1838C509.844 62.9825 505.853 62.9567 506.08 63.1458C506.167 63.2185 507.254 63.367 508.494 63.4757C511.655 63.7528 512.01 63.8123 511.491 63.9772C510.592 64.263 514.62 64.9377 518.557 65.1606C519.62 65.2208 520.557 65.3261 520.639 65.3946C520.722 65.4632 520.497 65.71 520.141 65.943C519.542 66.3345 519.53 66.3884 519.99 66.6497C520.264 66.8053 520.488 66.9717 520.488 67.0196C520.488 67.216 515.253 66.9333 513.532 66.644C511.057 66.2279 506.046 65.9243 505.583 66.1623C505.338 66.2882 505.336 66.3963 505.575 66.5446C505.899 66.7449 506.395 66.8306 510.518 67.3985C511.803 67.5757 512.45 67.7448 512.45 67.9041C512.45 68.1054 512.085 68.1265 510.156 68.0366C508.686 67.9682 507.791 67.9888 507.664 68.0942C507.556 68.1846 507.637 68.2586 507.846 68.2586C508.054 68.2586 508.153 68.2956 508.065 68.3409C507.857 68.4474 503.479 67.975 503.043 67.7991C502.701 67.6608 498.186 67.3034 497.223 67.3383C496.926 67.3491 496.682 67.4474 496.682 67.5569C496.682 67.6663 496.61 67.8522 496.523 67.97C496.371 68.1736 500.146 68.5851 506.652 69.0741C507.63 69.1476 508.934 69.316 509.55 69.4484C510.166 69.5807 511.106 69.6894 511.637 69.6899C513.038 69.6914 515.049 70.006 514.724 70.173C514.573 70.2504 512.691 70.334 510.54 70.359C508.389 70.3839 506.653 70.4164 506.681 70.4312C506.709 70.4461 507.42 70.597 508.26 70.7667C509.723 71.0622 509.758 71.0833 509.09 71.2673C508.566 71.4114 508.006 71.4169 506.85 71.2894C504.968 71.0819 504.721 71.0792 504.721 71.2658C504.721 71.3462 505.137 71.459 505.645 71.5164C507.335 71.7072 506.969 71.9141 504.941 71.9141C503.761 71.9141 502.568 72.015 501.988 72.1636C501.401 72.314 500.744 72.3688 500.331 72.3015C499.449 72.1576 484.933 72.1027 485.103 72.2439C485.463 72.5431 481.407 72.5415 477.946 72.241C470.938 71.6328 464.975 71.2871 461.128 71.2659C459.003 71.2543 455.803 71.1464 454.018 71.0263C452.232 70.9062 449.051 70.7341 446.949 70.644C444.847 70.5539 443.038 70.4526 442.93 70.419C442.822 70.3854 441.69 70.3122 440.414 70.2564C439.139 70.2006 437.609 70.1247 437.013 70.0877C435.775 70.0107 430.134 69.8491 426.038 69.7731C423.075 69.7182 418.573 69.572 415.526 69.4318C414.506 69.3848 410.541 69.3159 406.715 69.2786C402.889 69.2413 398.368 69.1522 396.667 69.0806C394.967 69.0089 390.264 68.9574 386.217 68.9661C380.096 68.9792 378.808 69.0213 378.565 69.2162C378.316 69.4149 378.23 69.4168 377.994 69.2287C377.809 69.0809 377.411 69.0383 376.802 69.1009C376.299 69.1526 375.737 69.1167 375.55 69.0208C375.364 68.9252 374.753 68.8318 374.191 68.8133C373.63 68.7949 372.892 68.7375 372.552 68.6857C370.7 68.4037 368.769 68.3216 367.991 68.4919C367.367 68.6286 365.809 68.4671 366.024 68.288C366.103 68.2221 364.614 68.1489 362.713 68.1254C357.596 68.0621 357.065 68.0332 356.486 67.7861C356.016 67.5853 355.969 67.5945 356.062 67.8696C356.133 68.0793 356.017 68.1607 355.703 68.1225C355.448 68.0914 354.926 68.0646 354.543 68.0629C354.161 68.0611 353.848 68.0048 353.848 67.9377C353.848 67.8705 353.624 67.7714 353.35 67.7173C352.988 67.6459 352.902 67.6871 353.037 67.8675C353.165 68.0387 353.103 68.0771 352.839 67.9909C352.629 67.9221 351.135 67.8433 349.519 67.8159C346.122 67.7581 346.627 67.7589 330.66 67.7878C323.944 67.8 317.588 67.7583 316.537 67.6952C315.485 67.6321 314.391 67.6266 314.105 67.6829C313.579 67.7867 303.48 67.9917 300.377 67.9615C297.95 67.938 295.198 68.6714 296.729 68.9337C296.957 68.9728 296.799 69.0853 296.342 69.2091C295.917 69.3243 295.493 69.4789 295.398 69.5527C295.057 69.8193 292.432 69.9681 291.686 69.763C291.217 69.6338 289.972 69.5874 288.014 69.6261C286.386 69.6583 281.036 69.7225 276.125 69.7686C271.215 69.8147 266.86 69.896 266.447 69.9493C266.034 70.0026 264.279 70.0571 262.547 70.0705C260.815 70.0839 259.119 70.1752 258.779 70.2735C258.171 70.4493 255.304 70.7379 254.824 70.6716C254.232 70.59 253.134 70.6105 252.132 70.7219C251.537 70.7881 250.772 70.8303 250.432 70.8156C250.092 70.801 249.535 70.7764 249.195 70.761C248.855 70.7456 247.255 70.8169 245.64 70.9196C244.024 71.0222 242.101 71.1048 241.366 71.1029C240.631 71.1012 239.866 71.1673 239.666 71.25C239.466 71.3327 238.85 71.4501 238.297 71.5109C237.475 71.6013 237.292 71.5725 237.292 71.3523C237.292 71.1141 237.036 71.0962 235.051 71.1959C233.818 71.2577 230.583 71.3248 227.863 71.345C225.142 71.3651 222.167 71.4656 221.251 71.5683C220.335 71.671 219.518 71.755 219.435 71.755C219.352 71.755 219.458 71.8623 219.67 71.9934C219.881 72.1245 220.525 72.2318 221.099 72.2318C221.673 72.2318 222.143 72.2617 222.143 72.2983C222.143 72.3348 222.228 72.4779 222.331 72.6162C222.588 72.961 221.718 72.944 221.031 72.5908C220.641 72.3907 220.457 72.369 220.364 72.5123C220.293 72.6214 220.108 72.6702 219.953 72.6208C219.797 72.5714 219.67 72.5888 219.67 72.6595C219.67 72.7303 219.357 72.7969 218.974 72.8076C218.592 72.8183 216.47 72.908 214.259 73.007C212.049 73.1059 207.597 73.2155 204.366 73.2505C201.135 73.2855 198.144 73.3534 197.719 73.4013C196.279 73.5637 188.359 73.9403 184.116 74.0482C176.252 74.2482 170.291 74.8263 169.061 75.5082C168.677 75.7215 167.999 75.8937 167.513 75.9019C163.512 75.9687 157.956 76.1829 155.518 76.3643C154.498 76.4402 152.708 76.5462 151.541 76.5998C150.373 76.6534 148.72 76.7654 147.866 76.8486C147.012 76.9319 146.263 77 146.201 77C146.139 77 146.088 76.817 146.088 76.5933L146.088 76.5935ZM146.088 75.1474C146.088 74.9735 145.951 74.9605 145.482 75.0898C145.119 75.1896 144.947 75.3534 145.054 75.4968C145.192 75.6818 145.331 75.695 145.661 75.5544C145.896 75.454 146.088 75.2709 146.088 75.1474ZM198.183 72.7835C199.392 72.5604 199.362 72.5572 196.792 72.6347C190.906 72.8121 189.062 72.902 189.062 73.0116C189.062 73.2189 196.882 73.0233 198.183 72.7835ZM54.5753 70.8641C54.5753 70.8298 54.3666 70.8016 54.1116 70.8016C53.8565 70.8016 53.6478 70.8709 53.6478 70.9556C53.6478 71.0403 53.8565 71.0684 54.1116 71.0181C54.3666 70.9678 54.5753 70.8985 54.5753 70.8641ZM76.9898 70.3248C77.0978 70.2351 76.8446 70.1659 76.408 70.1659C75.9829 70.1659 75.5491 70.2374 75.444 70.3248C75.3361 70.4146 75.5893 70.4838 76.0259 70.4838C76.451 70.4838 76.8847 70.4122 76.9898 70.3248ZM62.3045 69.5116C62.3045 69.3476 61.9343 69.3322 61.2477 69.4677C60.4719 69.6207 60.6801 69.8117 61.5315 69.728C61.9566 69.6862 62.3045 69.5888 62.3045 69.5116ZM237.242 69.4857C238.297 69.3347 238.441 69.2766 237.922 69.2133C237.097 69.1128 227.26 69.3252 221.989 69.5574C220.556 69.6205 231.619 69.7745 233.892 69.7231C234.997 69.6981 236.504 69.5913 237.242 69.4857ZM247.959 68.9966C248.299 68.9552 247.673 68.9272 246.567 68.9343C243.929 68.9513 242.885 69.0973 244.558 69.2153C245.238 69.2633 246.142 69.2506 246.567 69.1872C246.992 69.1237 247.618 69.0379 247.959 68.9966V68.9966ZM50.6587 69.0433C51.2953 69.0337 51.2912 69.0254 50.5763 68.8786C49.7334 68.7055 49.0103 68.7917 49.0103 69.0654C49.0103 69.1651 49.2299 69.203 49.4994 69.1498C49.7683 69.0968 50.29 69.0488 50.6587 69.0433ZM252.603 68.8644C252.686 68.8218 252.135 68.775 251.38 68.7604C250.625 68.7457 249.911 68.8136 249.793 68.9114C249.643 69.0362 250.006 69.0671 251.016 69.0154C251.806 68.9748 252.52 68.9069 252.603 68.8644ZM494.364 66.9871C494.482 66.8887 493.989 66.8354 493.068 66.847C491.748 66.8637 491.685 66.8794 492.509 66.9871C493.862 67.1641 494.151 67.1641 494.364 66.9871ZM17.8425 64.6534C17.6194 64.6075 17.3527 64.6132 17.25 64.666C17.1472 64.7188 17.3298 64.7564 17.6558 64.7495C18.0159 64.7418 18.0892 64.7042 17.8425 64.6534V64.6534ZM21.4946 64.4441C22.1159 64.3418 22.1462 64.316 21.6492 64.3122C21.3091 64.3096 20.7526 64.369 20.4125 64.4441C19.6247 64.6182 20.4375 64.6182 21.4946 64.4441ZM25.643 64.5066C25.912 64.4535 26.1321 64.2815 26.1321 64.1244C26.1321 63.8809 25.9376 63.8511 24.8181 63.923C23.3975 64.0143 22.4704 64.2852 23.5786 64.2852C23.9427 64.2852 24.3266 64.3567 24.4316 64.4441C24.6516 64.6271 24.9534 64.6426 25.643 64.5066ZM527.908 61.7422C527.908 61.6548 527.665 61.5843 527.367 61.5857C526.905 61.5877 526.894 61.6105 527.29 61.7422C527.873 61.936 527.908 61.936 527.908 61.7422ZM33.3008 55.276C33.0777 55.2301 32.811 55.2358 32.7083 55.2886C32.6055 55.3414 32.7881 55.379 33.1141 55.3721C33.4742 55.3644 33.5475 55.3268 33.3008 55.2761V55.276ZM30.7695 54.8123C30.7695 54.5533 29.9097 54.5241 28.7801 54.7449C27.5504 54.9853 27.8422 55.1544 29.3783 55.0916C30.3116 55.0535 30.7695 54.9615 30.7695 54.8123ZM36.5122 54.927C36.2035 54.6702 35.0979 54.6047 35.0979 54.8432C35.0979 54.9771 35.4153 55.0667 35.889 55.0667C36.3242 55.0667 36.6046 55.0039 36.5122 54.927ZM34.1704 54.7489C34.5153 54.6343 34.3371 54.5942 33.4747 54.5924C32.8371 54.5909 32.3154 54.6615 32.3154 54.7489C32.3154 54.9513 33.561 54.9513 34.1704 54.7489ZM549.55 36.153C549.55 36.0656 549.411 35.9941 549.241 35.9941C549.071 35.9941 548.932 36.0656 548.932 36.153C548.932 36.2404 549.071 36.312 549.241 36.312C549.411 36.312 549.55 36.2404 549.55 36.153ZM551.791 33.1869C551.579 33.1428 551.231 33.1428 551.018 33.1869C550.806 33.231 550.98 33.267 551.405 33.267C551.83 33.267 552.004 33.231 551.791 33.1869ZM547.154 31.2727C546.771 31.2348 546.145 31.2348 545.763 31.2727C545.38 31.3106 545.693 31.3416 546.458 31.3416C547.223 31.3416 547.536 31.3106 547.154 31.2727ZM532.855 29.9896C532.855 29.9216 531.707 29.7811 530.304 29.6774C528.901 29.5738 527.419 29.4394 527.01 29.3788C526.548 29.3104 526.337 29.3282 526.455 29.4258C526.559 29.5123 527.867 29.6741 529.363 29.7853C530.858 29.8965 532.221 30.0102 532.391 30.0379C532.561 30.0656 532.735 30.0939 532.778 30.1008C532.82 30.1077 532.855 30.0577 532.855 29.9896ZM81.9365 28.524C82.4886 28.402 82.4657 28.3862 81.7229 28.3762C81.2653 28.3701 80.8049 28.4366 80.6998 28.524C80.4717 28.7137 81.0776 28.7137 81.9365 28.524ZM530.691 27.5928C530.691 27.5177 529.295 27.3747 527.588 27.2749C523.744 27.0502 523.054 27.0457 523.447 27.2477C523.612 27.3325 525.275 27.4655 527.142 27.5434C529.009 27.6212 530.571 27.6949 530.614 27.7071C530.656 27.7193 530.691 27.6679 530.691 27.5928V27.5928ZM64.5914 25.6896C64.6789 25.6167 64.5481 25.5571 64.3004 25.5571C64.0529 25.5571 63.8503 25.6167 63.8503 25.6896C63.8503 25.7624 63.9812 25.822 64.1412 25.822C64.3012 25.822 64.5038 25.7624 64.5914 25.6896ZM105.955 25.3956C105.732 25.3497 105.465 25.3553 105.362 25.4081C105.26 25.4609 105.442 25.4985 105.768 25.4916C106.128 25.4839 106.201 25.4463 105.955 25.3955V25.3956ZM57.9761 25.1863C57.9761 25.0988 57.7327 25.0284 57.4351 25.0298C56.9727 25.0318 56.9615 25.0546 57.3578 25.1863C57.9413 25.3801 57.9761 25.3801 57.9761 25.1863ZM59.2128 24.9385C59.2128 24.8999 59.0737 24.8684 58.9036 24.8684C58.7336 24.8684 58.5945 24.9441 58.5945 25.0367C58.5945 25.1293 58.7336 25.1608 58.9036 25.1068C59.0737 25.0528 59.2128 24.977 59.2128 24.9385ZM76.8353 23.8318C77.2604 23.7707 78.582 23.6611 79.7723 23.5881C80.9626 23.5152 82.4234 23.3799 83.0186 23.2875C83.6137 23.1951 84.1007 23.1254 84.1007 23.1328C84.1007 23.1937 86.2184 22.8536 87.2696 22.6238C88.8646 22.2752 88.9653 22.0075 87.5015 22.0075C86.7457 22.0075 86.4194 21.9356 86.4194 21.7691C86.4194 21.5247 87.8031 21.428 90.1 21.5121C91.1006 21.5487 93.9555 21.2747 94.6092 21.0794C95.0974 20.9335 93.5372 20.769 91.502 20.7518C90.1779 20.7406 89.0498 20.8525 87.6561 21.1333C86.5713 21.3519 85.3972 21.5318 85.0468 21.5331C84.5394 21.5351 84.5012 21.5653 84.8588 21.6815C85.1058 21.7619 85.4188 21.7923 85.5544 21.7492C85.6901 21.7061 85.8011 21.7385 85.8011 21.8211C85.8011 21.9634 85.1243 22.0639 82.763 22.2723C82.1973 22.3222 81.6593 22.4636 81.5675 22.5866C81.431 22.7695 81.312 22.7733 80.915 22.6076C80.5084 22.4378 80.4591 22.4455 80.6116 22.6553C80.7448 22.8385 80.6149 22.8986 80.1284 22.8792C79.7625 22.8646 79.0015 22.9175 78.4373 22.9968C77.7259 23.0968 77.2757 23.0831 76.9688 22.9521C76.7198 22.8459 76.5261 22.8319 76.5261 22.9201C76.5261 23.0954 74.1704 23.5969 73.3468 23.5969C73.0549 23.5969 72.8161 23.6947 72.8161 23.8142C72.8161 23.976 73.2307 24.0202 74.4392 23.9872C75.3319 23.9628 76.4102 23.893 76.8353 23.8318V23.8318ZM89.5533 18.0677C89.3303 18.0295 89.0008 18.0738 88.8211 18.1662C88.5917 18.2841 88.7124 18.3048 89.2267 18.2357C89.6447 18.1795 89.7849 18.1074 89.5533 18.0677ZM462.983 17.438C462.983 17.3724 462.56 17.3036 462.044 17.285C461.507 17.2657 461.185 17.3166 461.29 17.4042C461.506 17.5835 462.984 17.613 462.983 17.438ZM90.4386 16.4367L91.2115 16.4245L90.4903 16.2759C89.6756 16.108 88.2744 16.2373 88.2744 16.4804C88.2744 16.569 88.5853 16.5978 88.97 16.5448C89.3526 16.4921 90.0135 16.4435 90.4386 16.4367ZM460.51 16.4711C460.51 16.3983 460.301 16.3387 460.046 16.3387C459.791 16.3387 459.583 16.3983 459.583 16.4711C459.583 16.544 459.791 16.6036 460.046 16.6036C460.301 16.6036 460.51 16.544 460.51 16.4711ZM461.805 16.495C461.582 16.4491 461.315 16.4547 461.212 16.5075C461.109 16.5603 461.292 16.5979 461.618 16.591C461.978 16.5834 462.051 16.5457 461.805 16.495V16.495ZM95.7523 16.1771C95.5292 16.1312 95.2625 16.1369 95.1598 16.1896C95.057 16.2425 95.2396 16.28 95.5656 16.2731C95.9257 16.2655 95.999 16.2278 95.7523 16.1771V16.1771ZM61.0678 15.9678C61.0678 15.8804 60.9287 15.8089 60.7586 15.8089C60.5886 15.8089 60.4495 15.8804 60.4495 15.9678C60.4495 16.0552 60.5886 16.1267 60.7586 16.1267C60.9287 16.1267 61.0678 16.0552 61.0678 15.9678ZM69.1061 15.551C69.1061 15.3729 68.5255 15.5291 68.3592 15.7519C68.1964 15.97 68.2416 15.9799 68.6353 15.8119C68.8942 15.7014 69.1061 15.584 69.1061 15.551ZM72.1978 15.5705C72.1978 15.4393 72.1431 15.3321 72.0763 15.3321C72.0094 15.3321 71.8747 15.4393 71.7768 15.5705C71.6789 15.7016 71.7336 15.8089 71.8983 15.8089C72.063 15.8089 72.1978 15.7016 72.1978 15.5705ZM476.954 10.1375C476.731 10.0915 476.464 10.0972 476.361 10.15C476.259 10.2028 476.441 10.2404 476.767 10.2334C477.127 10.2258 477.201 10.1882 476.954 10.1374V10.1375ZM192.296 6.91926C192.393 6.83789 192.347 6.73102 192.192 6.68178C192.037 6.63252 191.83 6.69911 191.732 6.82973C191.54 7.08723 192.005 7.1611 192.296 6.91926ZM45.5481 75.1327C45.3702 75.0235 45.346 74.9319 45.4944 74.9292C45.6427 74.9266 45.5039 74.8467 45.186 74.7517C44.3703 74.5081 45.0929 74.2992 46.6916 74.3166C47.5266 74.3256 47.7274 74.3636 47.3099 74.4333C46.7209 74.5318 46.2817 74.9364 46.7689 74.9319C47.6767 74.9234 48.3322 74.7157 48.1908 74.4813C48.0527 74.2525 48.0896 74.2545 48.4781 74.497C49.0062 74.8264 51.3588 74.8871 51.5622 74.5764C51.6655 74.4187 51.7912 74.4197 52.1729 74.5817C52.7747 74.837 53.1299 75.4573 52.6187 75.3604C52.4195 75.3226 52.3017 75.1954 52.3567 75.0776C52.4268 74.9279 52.2849 74.9436 51.8848 75.1297C51.4278 75.3423 50.7647 75.3894 48.5921 75.3637C46.8645 75.3432 45.7536 75.2589 45.5481 75.1328L45.5481 75.1327ZM41.3041 74.7824C40.8923 74.6516 41.0903 74.2983 41.5755 74.2983C41.9282 74.2983 42.2378 74.7471 41.9485 74.839C41.8203 74.8798 41.5303 74.8543 41.3041 74.7824ZM47.8454 73.5036C47.5035 73.2221 47.5392 73.183 48.1575 73.1615C48.5415 73.1482 49.0644 73.1256 49.3195 73.1114C50.1442 73.0652 50.2994 73.2104 49.7555 73.5194C49.0683 73.9097 48.3314 73.9036 47.8454 73.5036ZM235.128 72.3209C235.128 72.2824 235.267 72.2066 235.437 72.1526C235.607 72.0986 235.747 72.1301 235.747 72.2227C235.747 72.3153 235.607 72.391 235.437 72.391C235.267 72.391 235.128 72.3595 235.128 72.3209ZM238.756 72.2124C238.965 72.1038 239.215 72.0549 239.31 72.1039C239.405 72.1528 239.234 72.2417 238.929 72.3013C238.488 72.3876 238.453 72.3693 238.756 72.2124ZM72.8161 71.7747C72.8161 71.698 73.0307 71.5437 73.2929 71.4318C73.6637 71.2736 73.8523 71.2708 74.1406 71.419C74.4288 71.5672 74.4087 71.6429 74.0502 71.7595C73.4672 71.949 72.8161 71.957 72.8161 71.7747V71.7747ZM421.864 70.3248C421.864 70.2374 422.065 70.1659 422.31 70.1659C422.555 70.1659 422.841 70.2374 422.946 70.3248C423.052 70.4122 422.851 70.4838 422.501 70.4838C422.151 70.4838 421.864 70.4122 421.864 70.3248ZM416.609 70.156C416.609 69.9751 417.439 69.9567 417.651 70.1329C417.734 70.2022 417.534 70.2692 417.205 70.282C416.877 70.2947 416.609 70.238 416.609 70.156ZM110.007 69.8996C109.729 69.5268 110.153 69.4721 111.221 69.7429C111.779 69.8842 112.096 70.0105 111.926 70.0236C110.623 70.1244 110.152 70.0939 110.007 69.8996ZM377.345 69.5301C377.345 69.4427 377.406 69.3712 377.481 69.3712C377.556 69.3712 377.703 69.4427 377.808 69.5301C377.913 69.6176 377.852 69.6891 377.672 69.6891C377.492 69.6891 377.345 69.6176 377.345 69.5301ZM372.887 69.3925C372.754 69.2818 372.729 69.1482 372.831 69.0957C373.107 68.9535 373.409 69.1627 373.26 69.3932C373.155 69.5547 373.082 69.5546 372.887 69.3923V69.3925ZM374.021 69.4249C373.388 69.2936 373.583 69.0762 374.253 69.1662C374.593 69.2119 374.871 69.3125 374.871 69.3897C374.871 69.5413 374.63 69.5512 374.021 69.4249ZM522.24 68.6295C521.885 68.4466 522.015 68.2586 522.498 68.2586C522.753 68.2586 522.962 68.3659 522.962 68.497C522.962 68.7452 522.596 68.8124 522.24 68.6295ZM138.554 67.6559C138.47 67.5866 138.674 67.5194 139.006 67.5065C139.338 67.4937 139.529 67.5504 139.43 67.6325C139.211 67.8147 138.759 67.8268 138.554 67.6559ZM141.34 67.3829C141.438 67.2526 141.746 67.1405 142.025 67.1338C142.304 67.1271 143.159 67.0894 143.924 67.05C144.928 66.9984 145.186 67.0232 144.852 67.1393C144.469 67.272 144.465 67.3006 144.826 67.3026C145.067 67.304 145.177 67.3496 145.071 67.404C144.965 67.4585 144.043 67.5293 143.021 67.5614C141.474 67.6099 141.193 67.5801 141.34 67.3829ZM15.1699 66.9981C14.9412 66.8079 15.5228 66.6195 15.9346 66.7503C16.2804 66.8602 16.0534 67.1461 15.6204 67.1461C15.4704 67.1461 15.2677 67.0795 15.1699 66.9981ZM18.0937 62.8641C18.0937 62.7818 18.2313 62.6708 18.3994 62.6174C18.5746 62.5618 18.6264 62.6256 18.5209 62.767C18.3153 63.0423 18.0937 63.0927 18.0937 62.8641ZM20.361 62.7822C20.361 62.655 20.4792 62.5884 20.6236 62.6343C20.7681 62.6802 20.8063 62.7843 20.7085 62.8657C20.4585 63.0736 20.361 63.0502 20.361 62.7822ZM559.134 42.0337C558.879 41.949 558.809 41.8797 558.979 41.8797C559.15 41.8797 559.497 41.949 559.752 42.0337C560.007 42.1185 560.077 42.1878 559.907 42.1878C559.737 42.1878 559.389 42.1185 559.134 42.0337ZM51.1745 30.2385C51.1745 30.1696 51.4527 30.1133 51.7928 30.1133C52.1329 30.1133 52.4112 30.1804 52.4112 30.2624C52.4112 30.3444 52.1329 30.4007 51.7928 30.3875C51.4527 30.3743 51.1745 30.3073 51.1745 30.2385ZM64.1213 27.9043L63.3963 27.6025L65.2464 27.4762C66.264 27.4068 67.8268 27.3459 68.7193 27.3409C69.6118 27.336 70.3422 27.2833 70.3424 27.2238C70.3427 27.1001 72.1842 27.3465 72.4716 27.5088C72.5761 27.5677 72.2323 27.5741 71.7078 27.5229C71.1206 27.4656 70.4076 27.5241 69.8528 27.6747C69.3571 27.8094 68.2211 27.9265 67.3284 27.935C66.4357 27.9435 65.7053 28.0079 65.7053 28.0782C65.7053 28.3061 64.8648 28.2138 64.1213 27.9043V27.9043ZM60.224 27.9511C60.3268 27.8983 60.5934 27.8926 60.8166 27.9386C61.0632 27.9893 60.99 28.027 60.6298 28.0346C60.3039 28.0415 60.1213 28.0039 60.224 27.9511V27.9511ZM54.5997 25.7558C54.5863 25.5882 54.6594 25.4943 54.7621 25.5472C54.8648 25.6 54.8758 25.7371 54.7865 25.8518C54.6878 25.9786 54.6146 25.9409 54.5997 25.7558H54.5997ZM63.0433 24.4199C63.1296 24.3481 62.9156 24.164 62.5676 24.0108C61.9451 23.7368 61.9656 23.7249 63.8479 23.2672C66.1149 22.7161 66.3236 22.7037 66.3236 23.12C66.3236 23.3159 66.1159 23.4389 65.7826 23.4403C65.3441 23.4424 65.3244 23.4698 65.6789 23.5851C65.9195 23.6634 66.3717 23.7022 66.6837 23.6713C66.9958 23.6404 67.2511 23.688 67.2511 23.7771C67.2511 23.8662 66.799 23.9263 66.2463 23.9108C65.6937 23.8952 64.9633 23.8909 64.6232 23.9011C64.1081 23.9165 64.0823 23.9453 64.4686 24.0737C64.8649 24.2054 64.8537 24.2281 64.3913 24.2302C64.0938 24.2316 63.8503 24.3042 63.8503 24.3916C63.8503 24.479 63.6334 24.5505 63.3683 24.5505C63.1032 24.5505 62.9569 24.4918 63.0433 24.4199V24.4199ZM66.9964 23.1373C66.6856 23.0386 66.6977 22.9723 67.0544 22.8201C67.5546 22.6067 67.9533 22.7931 67.609 23.0795C67.4863 23.1816 67.216 23.2071 66.9964 23.1373ZM56.2757 16.4446C56.1706 16.3572 56.2934 16.2857 56.5484 16.2857C56.8035 16.2857 57.0981 16.3572 57.2032 16.4446C57.3083 16.532 57.1856 16.6035 56.9305 16.6035C56.6755 16.6035 56.3808 16.532 56.2757 16.4446ZM62.6077 15.733C63.053 15.4572 63.232 15.4285 63.232 15.6329C63.232 15.711 63.0036 15.8199 62.7245 15.8749C62.3001 15.9587 62.281 15.9354 62.6077 15.733ZM499.552 13.1681C499.914 12.9818 501.894 12.8358 502.293 12.9659C502.523 13.0408 502.572 13.1102 502.402 13.1202C500.738 13.2183 499.411 13.2406 499.552 13.1681ZM497.675 12.972C497.418 12.8882 497.61 12.842 498.216 12.842C498.733 12.842 499.156 12.9016 499.156 12.9744C499.156 13.1436 498.196 13.142 497.675 12.9719V12.972ZM489.726 12.7691C488.403 12.6168 485.19 12.5075 479.187 12.4107C477.131 12.3776 475.151 12.2686 474.788 12.1686C474.392 12.0598 473.007 12.0044 471.338 12.0307C469.803 12.0549 468.548 12.0584 468.548 12.0384C468.548 11.9831 470.347 11.5174 470.561 11.5174C470.664 11.5174 470.663 11.5889 470.558 11.6763C470.447 11.7691 470.761 11.8353 471.313 11.8353C471.833 11.8353 472.259 11.7637 472.259 11.6763C472.259 11.5889 472.406 11.5174 472.586 11.5174C472.766 11.5174 472.809 11.6068 472.681 11.7161C472.51 11.863 472.565 11.8728 472.895 11.7538C473.14 11.6652 473.619 11.601 473.959 11.6111C474.299 11.6211 475.316 11.6399 476.219 11.6528C477.121 11.6657 477.795 11.73 477.716 11.7955C477.637 11.8611 478.429 11.9043 479.476 11.8915C480.523 11.8785 481.622 11.9348 481.92 12.0163C482.281 12.1151 482.461 12.1065 482.461 11.9904C482.461 11.8948 482.629 11.87 482.835 11.9353C483.04 12.0006 484.397 12.0735 485.849 12.0974C487.301 12.1212 488.49 12.1492 488.49 12.1596C488.49 12.17 489.185 12.2016 490.036 12.2299C490.886 12.2582 491.616 12.2973 491.659 12.3166C491.731 12.3497 492.05 12.3978 492.586 12.4568C492.832 12.4839 491.381 12.9455 491.118 12.924C491.033 12.9169 490.407 12.8473 489.726 12.769L489.726 12.7691ZM477.205 11.9744C477.205 11.898 476.935 11.8354 476.605 11.8354C476.275 11.8354 475.93 11.898 475.838 11.9744C475.746 12.0509 476.016 12.1135 476.438 12.1135C476.86 12.1135 477.205 12.0509 477.205 11.9744ZM493.742 11.5149C493.636 11.4261 493.419 11.3945 493.26 11.4448C493.102 11.4951 492.973 11.4647 492.973 11.3773C492.973 11.0696 493.471 11.0647 493.841 11.3689C494.046 11.5381 494.152 11.6765 494.076 11.6765C493.999 11.6765 493.849 11.6038 493.742 11.515V11.5149ZM487.124 10.895C486.798 10.7274 486.467 10.6235 486.388 10.6641C486.309 10.7046 485.567 10.7617 484.739 10.791C483.305 10.8418 481.527 10.5144 481.978 10.2826C482.339 10.097 484.474 10.1404 484.94 10.3428C485.417 10.55 486.287 10.5569 486.677 10.3565C487.005 10.1878 488.582 10.2248 488.801 10.4063C489.097 10.6533 488.656 11.1995 488.16 11.1995C487.916 11.1995 487.45 11.0625 487.124 10.8949V10.895ZM490.315 11.0161C490.183 10.9066 490.23 10.8756 490.43 10.9392C490.615 10.9979 490.853 10.9732 490.96 10.8843C491.248 10.6447 491.633 10.6887 491.633 10.9612C491.633 11.2412 490.636 11.2827 490.315 11.0161ZM128.859 9.83211C128.962 9.77928 129.228 9.77362 129.451 9.81958C129.698 9.87031 129.625 9.90797 129.265 9.91561C128.939 9.92249 128.756 9.88495 128.859 9.83213V9.83211ZM191.227 5.31889C191.227 5.23148 191.288 5.15995 191.363 5.15995C191.438 5.15995 191.585 5.23148 191.69 5.31889C191.795 5.40631 191.734 5.47783 191.554 5.47783C191.374 5.47783 191.227 5.40631 191.227 5.31889ZM198.436 5.33497C197.937 5.14647 198.056 4.87559 198.606 4.94946C198.956 4.99659 199.181 4.93175 199.213 4.77424C199.242 4.63671 199.288 4.41692 199.316 4.28579C199.345 4.15467 199.623 4.03846 199.935 4.02752C200.247 4.01655 200.606 3.99289 200.733 3.97484C200.861 3.95676 201.383 3.88434 201.893 3.81384C203.027 3.65711 203.643 3.42297 203.417 3.23469C203.324 3.15718 203.522 3.09377 203.858 3.09377C204.194 3.09377 204.54 3.18316 204.626 3.29244C204.735 3.43048 204.861 3.43905 205.038 3.32059C205.492 3.01753 206.439 2.92295 206.938 3.13078C207.339 3.2976 207.377 3.29343 207.157 3.10648C206.956 2.93505 207.022 2.90639 207.432 2.98728C207.729 3.04585 208.16 3.09376 208.39 3.09376C208.619 3.09376 208.891 3.22946 208.994 3.39532C209.113 3.58916 209.378 3.67016 209.736 3.62211C210.525 3.51602 210.443 3.12304 209.648 3.1983C209.019 3.25776 209.019 3.25559 209.622 3.10819C209.962 3.02512 210.711 2.95214 211.287 2.94599C211.862 2.9398 213.184 2.86467 214.224 2.77892C216.919 2.55672 223.694 2.16733 226.781 2.05723C228.226 2.0057 230.035 1.93518 230.8 1.90051C232.412 1.8275 235.595 1.71127 239.766 1.57309C241.381 1.51958 243.607 1.4364 244.712 1.38827C247.369 1.27258 251.55 1.26395 252.132 1.37301C252.387 1.4208 253.187 1.51481 253.91 1.58195C254.633 1.64907 255.224 1.75663 255.224 1.82095C255.224 1.88526 254.88 2.11472 254.46 2.33082C253.837 2.65072 253.406 2.72085 252.14 2.70811C251.215 2.6987 250.626 2.75772 250.688 2.85342C250.746 2.94192 251.864 3.02023 253.173 3.02742C255.229 3.03868 256.598 3.24432 256.131 3.47153C255.922 3.57319 251.823 3.67364 251.824 3.5771C251.824 3.52982 250.885 3.51352 249.737 3.54086C248.589 3.56821 246.851 3.52564 245.876 3.44607C244.9 3.36657 244.036 3.33546 243.956 3.37695C243.875 3.4184 243.212 3.46742 242.483 3.48587C241.754 3.50432 240.773 3.57466 240.303 3.64222C239.795 3.71527 239.289 3.69717 239.056 3.59753C238.84 3.5054 237.318 3.41349 235.674 3.39327C233.639 3.36828 232.748 3.30194 232.884 3.18543C232.993 3.09135 232.847 3.11283 232.558 3.2332C232.197 3.38374 231.641 3.41978 230.775 3.34865C229.949 3.28075 229.585 3.30111 229.713 3.40795C229.932 3.59004 229.891 3.59353 227.09 3.63223C225.985 3.64748 224.767 3.71622 224.385 3.78496C224.002 3.8537 223.689 3.85147 223.689 3.78003C223.689 3.70858 223.341 3.65011 222.916 3.65011C222.491 3.65011 222.143 3.70375 222.143 3.76932C222.143 3.83488 221.926 3.88852 221.661 3.88852C221.396 3.88852 221.252 3.82812 221.341 3.75425C221.555 3.57577 218.379 3.83789 218.149 4.0177C217.727 4.34686 211.941 4.68042 211.941 4.37559C211.941 4.28256 211.793 4.2064 211.613 4.2064C211.433 4.2064 211.366 4.27299 211.464 4.35437C211.743 4.587 211.032 4.73023 210.572 4.53392C210.263 4.40223 210.118 4.41029 210.003 4.56551C209.902 4.69953 209.394 4.76074 208.575 4.73721C207.876 4.71712 207.303 4.76746 207.303 4.84911C207.303 5.11195 205.715 4.93934 205.406 4.64299C205.242 4.48539 204.974 4.39915 204.809 4.45134C204.645 4.50354 204.582 4.60534 204.669 4.67755C204.755 4.74976 204.623 4.84899 204.374 4.89804C204.126 4.94709 203.839 4.9177 203.736 4.8327C203.623 4.73849 203.227 4.77086 202.722 4.91562C201.771 5.18805 198.813 5.4775 198.436 5.33504L198.436 5.33497ZM194.009 4.61306C194.009 4.33389 194.195 4.29279 194.46 4.51323C194.558 4.59461 194.496 4.70612 194.323 4.76101C194.151 4.81592 194.009 4.7495 194.009 4.61306ZM195.174 4.33851C195.354 4.24614 195.683 4.20184 195.906 4.24007C196.138 4.27975 195.998 4.3518 195.58 4.40799C195.065 4.47713 194.945 4.45643 195.174 4.33851ZM301.676 3.93523C301.294 3.89734 300.981 3.81175 300.981 3.74503C300.981 3.55053 302.324 3.65626 302.457 3.86123C302.524 3.96362 302.532 4.03765 302.475 4.02574C302.418 4.01379 302.059 3.97311 301.676 3.93523H301.676ZM295.261 3.57057C296.111 3.38282 296.599 3.38282 296.034 3.57057C295.779 3.65532 295.361 3.72073 295.106 3.71591C294.801 3.71015 294.853 3.66065 295.261 3.57057ZM297.134 3.58536C297.038 3.5061 297.239 3.47869 297.579 3.52444C298.301 3.62149 298.392 3.72949 297.753 3.72949C297.508 3.72949 297.229 3.66463 297.134 3.58536ZM257.333 3.22569C256.846 2.97423 257.067 2.95679 260.888 2.94496C263.129 2.93793 265.273 2.90151 265.652 2.86386C266.031 2.8262 266.413 2.85542 266.501 2.92876C266.589 3.0021 267.087 3.04697 267.608 3.02844C269.014 2.97838 269.021 3.20978 267.615 3.27873C266.95 3.31133 266.472 3.28296 266.553 3.21586C266.807 3.00475 266.33 3.08308 265.846 3.33214C265.32 3.60253 264.014 3.65121 263.725 3.41119C263.598 3.30536 263.33 3.30782 262.928 3.4185C262.243 3.60682 261.599 3.47884 261.914 3.21708C262.051 3.10262 261.975 3.09174 261.687 3.18471C261.448 3.26179 260.488 3.36286 259.552 3.40932C258.214 3.47578 257.741 3.43669 257.333 3.22566V3.22569ZM282.121 3.41159C282.121 3.32418 282.183 3.25267 282.258 3.25267C282.333 3.25267 282.48 3.32418 282.585 3.41159C282.69 3.49901 282.629 3.57053 282.449 3.57053C282.269 3.57053 282.121 3.49901 282.121 3.41159ZM269.755 3.09372C269.476 3.00115 269.438 2.93867 269.659 2.93721C269.862 2.93577 270.113 3.0063 270.219 3.09372C270.456 3.29105 270.349 3.29105 269.755 3.09372ZM390.51 3.07204C390.67 2.93898 389.492 2.78246 389.254 2.9051C388.921 3.07598 387.547 3.10827 387.547 2.94518C387.547 2.8443 386.667 2.82 385.151 2.87899C383.292 2.95133 382.512 2.91405 381.673 2.71274C381.078 2.57005 380.825 2.48608 381.112 2.52616C381.398 2.56624 381.677 2.53684 381.73 2.46093C381.784 2.385 382.036 2.29962 382.291 2.2712C382.546 2.24281 382.857 2.14803 382.982 2.06061C383.107 1.97319 383.211 2.0583 383.214 2.24986C383.218 2.57901 383.265 2.58556 384.069 2.36971C384.832 2.16489 384.963 2.16995 385.347 2.41887C385.754 2.68279 385.766 2.68276 385.589 2.41887C385.445 2.20422 385.573 2.14073 386.15 2.14073C386.561 2.14073 387.04 2.2659 387.213 2.41887C387.388 2.57323 387.532 2.60859 387.538 2.49834C387.547 2.29021 388.474 2.21157 388.474 2.41887C388.474 2.48443 389.526 2.53394 390.812 2.52889C392.097 2.52383 393.218 2.57747 393.303 2.6481C393.388 2.7187 393.755 2.77647 394.12 2.77647C394.649 2.77647 394.704 2.81621 394.395 2.97514C394.008 3.17407 390.276 3.26779 390.51 3.07269V3.07204ZM395.585 3.06726C395.585 2.99441 395.69 2.92999 395.817 2.92408C395.945 2.91818 396.494 2.88341 397.038 2.84684C398.261 2.76456 398.697 3.03722 397.52 3.14863C396.357 3.25876 395.585 3.22633 395.585 3.06726ZM373.326 2.53745C373.326 2.45004 372.804 2.37853 372.166 2.37853C371.528 2.37853 370.904 2.45004 370.779 2.53745C370.628 2.64341 370.551 2.64341 370.547 2.53745C370.54 2.33833 368.688 2.29123 368.688 2.49019C368.688 2.57022 368.561 2.59552 368.407 2.54642C368.112 2.45287 365.393 2.30266 362.505 2.22042C361.569 2.19379 360.804 2.15594 360.804 2.1363C360.804 2.02978 356.736 2.02813 356.476 2.13457C356.011 2.32456 352.92 2.4571 352.92 2.28702C352.92 2.20622 352.712 2.14013 352.457 2.14013C352.202 2.14013 351.993 2.20914 351.993 2.29351C351.993 2.38926 349.815 2.41861 346.196 2.37166C343.008 2.33031 340.064 2.29721 339.653 2.29813C339.243 2.29957 338.443 2.23385 337.876 2.15329C337.255 2.06521 336.844 2.06465 336.844 2.15185C336.844 2.29628 335.762 2.27289 335.469 2.1221C335.385 2.07861 333.978 2.06844 332.343 2.09953C330.372 2.13699 329.223 2.0932 328.933 1.96965C328.593 1.82446 328.495 1.83149 328.492 2.00138C328.488 2.1392 328.403 2.15839 328.26 2.05348C328.123 1.95383 326.364 1.87955 323.859 1.86767C321.563 1.85685 314.607 1.80694 308.401 1.75695C302.194 1.70698 294.229 1.65655 290.701 1.64491C287.172 1.63339 284.285 1.579 284.285 1.5243C284.285 1.46958 283.519 1.42482 282.584 1.42482C281.65 1.42482 280.885 1.47846 280.885 1.54402C280.885 1.60958 280.737 1.66323 280.557 1.66323C280.377 1.66323 280.316 1.5917 280.421 1.50428C280.526 1.41687 280.395 1.34535 280.13 1.34535C279.865 1.34543 279.648 1.2739 279.648 1.18649C279.648 1.09907 279.501 1.02755 279.321 1.02755C279.141 1.02755 279.079 1.09907 279.184 1.18649C279.297 1.28037 278.957 1.34444 278.352 1.34299C277.578 1.34097 277.442 1.3031 277.793 1.18649C278.136 1.0727 278.15 1.03178 277.848 1.02998C277.534 1.02797 277.546 0.972741 277.904 0.78914C278.159 0.658017 278.655 0.550731 279.008 0.550731C279.36 0.550731 279.648 0.474385 279.648 0.381075C279.648 0.28044 279.915 0.255043 280.305 0.318652C280.747 0.390792 280.893 0.368299 280.751 0.249895C280.634 0.153098 280.621 0.0739134 280.722 0.0739134C280.822 0.0739134 281.01 0.221008 281.14 0.400798L281.375 0.727697L282.19 0.398C282.749 0.172018 283.073 0.124518 283.22 0.247027C283.373 0.373736 283.511 0.362999 283.695 0.2101C283.905 0.0348505 286.026 -0.00444066 295.018 0.000381498C301.103 0.00374981 308.586 0.0522403 311.647 0.10841C314.707 0.164569 319.786 0.251988 322.931 0.30268C334.29 0.485674 337.216 0.552182 337.471 0.633053C338.04 0.813755 340.531 0.974049 340.908 0.854198C341.141 0.780342 341.412 0.806713 341.55 0.916739C341.729 1.05873 341.868 1.04651 342.095 0.868606C342.262 0.737481 342.402 0.701719 342.404 0.78914C342.408 0.889452 344.32 0.940989 347.588 0.928872C352.752 0.909698 361.577 1.16626 361.577 1.33563C361.578 1.38473 362.656 1.41684 363.973 1.40703C366.232 1.39019 371.433 1.6077 372.355 1.75755C372.696 1.81284 372.702 1.87225 372.389 2.06618C372.073 2.26162 372.081 2.29334 372.431 2.2365C372.668 2.1981 373.25 2.12284 373.724 2.06927C374.256 2.00924 374.519 1.89739 374.409 1.77785C374.31 1.67114 374.392 1.69579 374.59 1.8326C374.882 2.0338 375.279 2.05847 376.667 1.96162C377.644 1.89351 378.618 1.90617 378.926 1.99098C379.224 2.07302 379.86 2.14986 380.339 2.16176C381.141 2.18169 381.15 2.18911 380.463 2.25567C379.886 2.31158 379.816 2.36007 380.154 2.46999C380.632 2.62553 380.23 2.64502 375.876 2.67743C374.357 2.68869 373.326 2.63213 373.326 2.53747L373.326 2.53745ZM283.471 1.10792C283.373 0.977291 283.169 0.910003 283.017 0.958374C282.58 1.09706 282.694 1.34541 283.194 1.34541C283.47 1.34541 283.578 1.25218 283.471 1.10792ZM265.439 1.65124C265.757 1.34559 265.738 1.31088 265.301 1.39721C264.864 1.48332 264.844 1.44852 265.159 1.14643L265.524 0.795663L265.832 1.15002C266.185 1.55656 266.823 1.61567 267.084 1.26594C267.182 1.13482 267.15 1.02753 267.014 1.02753C266.878 1.02753 266.766 0.919379 266.766 0.787171C266.766 0.591752 267.046 0.565854 268.26 0.648709C269.281 0.718318 269.755 0.693764 269.755 0.571215C269.755 0.47155 270.244 0.391789 270.855 0.391789C271.576 0.391789 271.883 0.451993 271.745 0.566585C271.596 0.690849 271.723 0.689797 272.184 0.56293C272.723 0.414641 272.802 0.425395 272.652 0.626538C272.552 0.759676 272.347 0.868615 272.195 0.868615C272.043 0.868615 271.919 0.940138 271.919 1.02754C271.919 1.35886 272.478 1.16737 272.846 0.709668C273.277 0.175878 273.288 0.172943 274.063 0.386175C274.454 0.493742 274.574 0.661695 274.468 0.949052C274.384 1.17432 274.437 1.33779 274.586 1.31229C274.734 1.28681 274.926 1.33584 275.011 1.42128C275.102 1.51316 274.367 1.58762 273.212 1.60358C271.426 1.62822 271.229 1.59782 270.921 1.24958C270.588 0.874084 269.446 0.709422 269.446 1.03692C269.446 1.12952 269.583 1.16155 269.751 1.10815C269.924 1.05334 269.98 1.1142 269.88 1.24767C269.777 1.38593 269.5 1.44421 269.215 1.38785C268.897 1.32516 268.802 1.35485 268.944 1.47271C269.192 1.67959 268.165 1.83234 266.972 1.76581C266.547 1.74212 265.945 1.78628 265.635 1.86397C265.129 1.99056 265.109 1.96847 265.439 1.65124V1.65124ZM273.897 1.05403C273.984 0.981188 273.859 0.921588 273.619 0.921588C273.379 0.921588 273.254 0.981188 273.342 1.05403C273.43 1.12687 273.554 1.18648 273.619 1.18648C273.684 1.18648 273.809 1.12687 273.897 1.05403ZM261.274 1.68136C261.181 1.60388 261.382 1.50323 261.721 1.45767C262.132 1.4025 262.274 1.2903 262.148 1.12173C262.044 0.98251 262.09 0.868602 262.25 0.868602C262.674 0.868602 262.606 1.38779 262.151 1.62167C261.689 1.8589 261.503 1.87158 261.274 1.68136ZM263.17 1.23946C263.257 1.1229 263.368 1.02753 263.417 1.02753C263.465 1.02753 263.576 1.1229 263.663 1.23946C263.75 1.35602 263.639 1.45138 263.417 1.45138C263.194 1.45138 263.083 1.35602 263.17 1.23946ZM264.363 0.794187C264.693 0.665846 265.268 0.558562 265.64 0.555778C266.378 0.550164 266.847 0.79129 266.385 0.938088C266.227 0.988371 266.044 0.947357 265.979 0.8468C265.89 0.709491 265.697 0.709226 265.2 0.845364C264.25 1.10684 263.652 1.06999 264.363 0.793743V0.794187ZM260.254 0.772565C260.357 0.719752 260.624 0.714103 260.847 0.760041C261.094 0.810773 261.02 0.848438 260.66 0.856056C260.334 0.862936 260.152 0.825396 260.254 0.772583V0.772565ZM276.556 0.709646C276.16 0.577986 276.171 0.555215 276.634 0.553134C276.931 0.551694 277.175 0.622223 277.175 0.709646C277.175 0.903494 277.14 0.903494 276.556 0.709646ZM274.896 0.46757C274.749 0.270051 274.828 0.256447 275.327 0.393686C276.043 0.590865 276.111 0.709646 275.507 0.709646C275.271 0.709646 274.995 0.600704 274.896 0.46757Z" fill="url(#paint0_linear)" fill-opacity="0.9"/>
<defs>
<linearGradient id="paint0_linear" x1="280" y1="0" x2="280" y2="77" gradientUnits="userSpaceOnUse">
<stop stop-color="#ED4DA6"/>
<stop offset="0.9999" stop-color="#4E70EF"/>
<stop offset="1" stop-opacity="0"/>
</linearGradient>
</defs>
</svg>
