<svg width="1476" height="761" viewBox="0 0 1476 761" fill="none" xmlns="http://www.w3.org/2000/svg">
<path d="M1475 759.5C1444.11 605.046 1309.06 264.576 1155.21 218.786C1065.37 192.048 939.242 192.628 877.76 275.97C829.482 341.413 822.01 461.491 918.001 486.174C1012.24 510.408 1106.5 477.77 1163.94 400.398C1221.9 322.331 1210.99 236.849 1154.41 159.484C1085.41 65.1261 961.848 25.8061 849.433 21.2894C726.244 16.3399 589.92 38.2075 499.975 129.833C452.034 178.671 426.192 276.762 479.59 331.565C533.922 387.327 624.761 353.086 656.967 291.06C698.407 211.249 675.979 133.159 611.961 75.2965C533.87 4.71471 453.555 -1.00721 352.25 1.43386C104.613 7.40101 -25.2588 290.875 5.43998 510.001C40.6031 760.992 396.35 780.703 559.807 644.489M559.807 644.489L506 648M559.807 644.489L552.153 666.744L544.5 689" stroke="url(#paint0_linear)" stroke-width="2" stroke-linecap="round" stroke-linejoin="round"/>
<defs>
<linearGradient id="paint0_linear" x1="0.999998" y1="393.5" x2="1413.5" y2="447.5" gradientUnits="userSpaceOnUse">
<stop stop-color="#4C70F0"/>
<stop offset="1" stop-color="#F04CA5"/>
</linearGradient>
</defs>
</svg>
